<svg width="300" height="300" viewBox="0 0 300 300" fill="none" xmlns="http://www.w3.org/2000/svg">
<path d="M144.44 0C135.308 0.331033 126.443 1.47017 117.799 3.35907C117.689 3.47997 117.573 3.59591 117.452 3.70656C98.2102 22.0514 82.6973 46.2459 72.5097 74.0154H144.44V0ZM155.56 0V74.0154H227.49C217.303 46.2459 201.79 22.0514 182.548 3.70656C182.388 3.59886 182.233 3.48287 182.085 3.35907C173.502 1.49515 164.624 0.328772 155.56 0ZM96.7181 9.6139C64.5604 21.803 37.8387 44.7377 20.6178 74.0154H60.5792C69.0013 49.6692 81.334 27.8156 96.7181 9.6139ZM203.282 9.6139C218.666 27.8156 230.999 49.6692 239.421 74.0154H279.498C262.288 44.7304 235.437 21.8052 203.282 9.6139ZM14.5946 85.1351C5.93348 103.201 0.768382 123.243 0 144.44H48.1853C48.6627 123.705 51.8397 103.802 57.2201 85.1351H14.5946ZM68.8031 85.1351C63.1626 103.663 59.8111 123.621 59.305 144.44H144.44V85.1351H68.8031ZM155.56 85.1351V144.44H240.695C240.189 123.621 236.837 103.663 231.197 85.1351H155.56ZM242.78 85.1351C248.16 103.802 251.337 123.705 251.815 144.44H300C299.232 123.243 294.061 103.201 285.405 85.1351H242.78ZM0 155.56C0.768382 176.757 5.93348 196.805 14.5946 214.865H57.1042C51.7432 196.238 48.6573 176.261 48.1853 155.56H0ZM59.305 155.56C59.8059 176.379 63.0504 196.352 68.6873 214.865H144.44V155.56H59.305ZM155.56 155.56V214.865H231.313C236.95 196.352 240.194 176.379 240.695 155.56H155.56ZM251.815 155.56C251.343 176.261 248.257 196.238 242.896 214.865H285.405C294.061 196.805 299.232 176.757 300 155.56H251.815ZM20.6178 225.985C37.8387 255.252 64.5604 278.205 96.7181 290.386C81.3317 272.192 69.0014 250.31 60.5792 225.985H20.6178ZM72.3938 225.985C82.5806 253.77 98.1841 277.808 117.452 296.178C117.615 296.323 117.77 296.478 117.915 296.641C117.954 296.679 117.993 296.718 118.031 296.757C126.598 298.613 135.394 299.674 144.44 300V225.985H72.3938ZM155.56 225.985V300C164.624 299.672 173.502 298.503 182.085 296.641C182.23 296.478 182.385 296.323 182.548 296.178C201.816 277.808 217.419 253.77 227.606 225.985H155.56ZM239.421 225.985C230.999 250.31 218.668 272.192 203.282 290.386C235.437 278.203 262.288 255.259 279.498 225.985H239.421Z" fill="#3B3B3B"/>
</svg>
