<svg data-v-423bf9ae="" xmlns="http://www.w3.org/2000/svg" viewBox="0 0 139.82047978895204 60" class="font"><!----><!----><defs data-v-423bf9ae=""><linearGradient data-v-423bf9ae="" gradientTransform="rotate(25)" id="0d859792-bf2a-4fee-a763-77f3119b979f" x1="0%" y1="0%" x2="100%" y2="0%"><stop data-v-423bf9ae="" offset="0%" style="stop-color: rgb(8, 199, 214); stop-opacity: 1;"></stop><stop data-v-423bf9ae="" offset="100%" style="stop-color: rgb(2, 2, 62); stop-opacity: 1;"></stop></linearGradient></defs><g data-v-423bf9ae="" id="d6a4c86f-47d8-482d-9d75-7d8776bd2dd5" fill="url(#0d859792-bf2a-4fee-a763-77f3119b979f)" transform="matrix(5.385996704430117,0,0,5.385996704430117,-0.3770182655815404,-15.403951770615436)"><path d="M5.66 13.80L4.06 13.80L1.33 5.68L1.33 5.68Q1.12 5.04 0.85 4.70L0.85 4.70L0.85 4.70Q0.59 4.37 0.07 3.98L0.07 3.98L0.25 3.75L3.40 3.75L3.57 4.23L3.25 4.31L3.25 4.31Q2.91 4.40 2.77 4.54L2.77 4.54L2.77 4.54Q2.62 4.68 2.62 4.93L2.62 4.93L2.62 4.93Q2.62 5.15 2.77 5.61L2.77 5.61L5.05 12.64L7.01 6.55L7.01 6.55Q7.28 5.71 7.28 5.25L7.28 5.25L7.28 5.25Q7.25 4.48 6.65 4.31L6.65 4.31L6.33 4.23L6.50 3.75L9.16 3.75L9.34 3.98L9.13 4.23L9.13 4.23Q8.61 4.84 8.36 5.63L8.36 5.63L5.66 13.80ZM10.84 4.59L10.84 4.59Q10.84 4.33 11.14 4.00L11.14 4.00L11.14 4.00Q11.44 3.67 11.69 3.67L11.69 3.67L11.69 3.67Q11.96 3.67 12.26 3.99L12.26 3.99L12.26 3.99Q12.57 4.31 12.57 4.59L12.57 4.59L12.57 4.59Q12.57 4.86 12.26 5.18L12.26 5.18L12.26 5.18Q11.96 5.50 11.69 5.50L11.69 5.50L11.69 5.50Q11.45 5.50 11.14 5.18L11.14 5.18L11.14 5.18Q10.84 4.86 10.84 4.59L10.84 4.59ZM12.32 12.57L12.32 12.57Q12.32 13.05 12.74 13.05L12.74 13.05L12.74 13.05Q13.09 13.05 13.44 12.75L13.44 12.75L13.71 13.12L13.71 13.12Q13.34 13.52 12.92 13.76L12.92 13.76L12.92 13.76Q12.50 14 12.14 14L12.14 14L12.14 14Q11.56 14 11.31 13.65L11.31 13.65L11.31 13.65Q11.06 13.30 11.06 12.52L11.06 12.52L11.06 8.18L11.06 8.18Q11.06 8.01 11.00 7.94L11.00 7.94L11.00 7.94Q10.93 7.87 10.78 7.87L10.78 7.87L10.16 7.87L10.04 7.50L10.04 7.50Q10.44 7.14 10.96 6.90L10.96 6.90L10.96 6.90Q11.48 6.66 11.89 6.66L11.89 6.66L11.89 6.66Q12.08 6.66 12.21 6.79L12.21 6.79L12.21 6.79Q12.33 6.92 12.33 7.11L12.33 7.11L12.32 12.57ZM14.55 10.33L14.55 10.33Q14.55 9.21 14.96 8.39L14.96 8.39L14.96 8.39Q15.37 7.56 16.15 7.11L16.15 7.11L16.15 7.11Q16.93 6.66 17.96 6.66L17.96 6.66L17.96 6.66Q19.00 6.66 19.77 7.11L19.77 7.11L19.77 7.11Q20.54 7.56 20.96 8.39L20.96 8.39L20.96 8.39Q21.38 9.21 21.38 10.33L21.38 10.33L21.38 10.33Q21.38 11.44 20.96 12.27L20.96 12.27L20.96 12.27Q20.54 13.10 19.77 13.55L19.77 13.55L19.77 13.55Q19.00 14 17.96 14L17.96 14L17.96 14Q16.93 14 16.15 13.55L16.15 13.55L16.15 13.55Q15.37 13.10 14.96 12.27L14.96 12.27L14.96 12.27Q14.55 11.44 14.55 10.33L14.55 10.33ZM19.91 10.37L19.91 10.37Q19.91 9.72 19.73 9.03L19.73 9.03L19.73 9.03Q19.54 8.34 19.12 7.87L19.12 7.87L19.12 7.87Q18.69 7.39 18.00 7.39L18.00 7.39L18.00 7.39Q17.42 7.39 16.96 7.76L16.96 7.76L16.96 7.76Q16.51 8.13 16.25 8.81L16.25 8.81L16.25 8.81Q16.00 9.48 16.00 10.35L16.00 10.35L16.00 10.35Q16.00 11.68 16.52 12.46L16.52 12.46L16.52 12.46Q17.04 13.24 17.92 13.24L17.92 13.24L17.92 13.24Q18.49 13.24 18.95 12.89L18.95 12.89L18.95 12.89Q19.40 12.53 19.66 11.88L19.66 11.88L19.66 11.88Q19.91 11.23 19.91 10.37L19.91 10.37ZM24.64 12.57L24.64 12.57Q24.64 13.05 25.06 13.05L25.06 13.05L25.06 13.05Q25.41 13.05 25.76 12.75L25.76 12.75L26.03 13.12L26.03 13.12Q25.66 13.52 25.24 13.76L25.24 13.76L25.24 13.76Q24.82 14 24.46 14L24.46 14L24.46 14Q23.88 14 23.63 13.65L23.63 13.65L23.63 13.65Q23.38 13.30 23.38 12.52L23.38 12.52L23.38 4.37L23.38 4.37Q23.38 4.20 23.32 4.13L23.32 4.13L23.32 4.13Q23.25 4.06 23.10 4.06L23.10 4.06L22.48 4.06L22.36 3.70L22.36 3.70Q22.76 3.33 23.28 3.09L23.28 3.09L23.28 3.09Q23.80 2.86 24.21 2.86L24.21 2.86L24.21 2.86Q24.40 2.86 24.53 2.98L24.53 2.98L24.53 2.98Q24.65 3.11 24.65 3.30L24.65 3.30L24.64 12.57Z"></path></g><!----><!----></svg>