<svg id="b1264130-86cc-49d8-bce5-8554faa016d1" data-name="Layer 1" xmlns="http://www.w3.org/2000/svg" xmlns:xlink="http://www.w3.org/1999/xlink" width="1000" height="930.67" viewBox="0 0 1000 930.67"><defs><linearGradient id="ae3f234c-a57f-4586-a627-a920035c5189" x1="856.96" y1="35.27" x2="805.58" y2="326.65" gradientTransform="matrix(1, 0, 0, -1, -0.07, 717.95)" gradientUnits="userSpaceOnUse"><stop offset="0" stop-color="#79e2f2" stop-opacity="0"/><stop offset="0.08" stop-color="#79e2f2" stop-opacity="0.14"/><stop offset="0.23" stop-color="#79e2f2" stop-opacity="0.37"/><stop offset="0.37" stop-color="#79e2f2" stop-opacity="0.56"/><stop offset="0.49" stop-color="#79e2f2" stop-opacity="0.69"/><stop offset="0.6" stop-color="#79e2f2" stop-opacity="0.77"/><stop offset="0.67" stop-color="#79e2f2" stop-opacity="0.8"/></linearGradient><linearGradient id="a8cb83f1-884b-4887-bf34-bf0c04435142" x1="142.93" y1="-179.26" x2="189.69" y2="85.76" gradientTransform="matrix(1, 0, 0, -1, -0.07, 717.95)" gradientUnits="userSpaceOnUse"><stop offset="0" stop-color="#00c7e5" stop-opacity="0"/><stop offset="0.12" stop-color="#00c7e5" stop-opacity="0.02"/><stop offset="0.25" stop-color="#00c7e5" stop-opacity="0.07"/><stop offset="0.39" stop-color="#00c7e5" stop-opacity="0.16"/><stop offset="0.52" stop-color="#00c7e5" stop-opacity="0.29"/><stop offset="0.65" stop-color="#00c7e5" stop-opacity="0.45"/><stop offset="0.79" stop-color="#00c7e5" stop-opacity="0.65"/><stop offset="0.92" stop-color="#00c7e5" stop-opacity="0.89"/><stop offset="0.98" stop-color="#00c7e5"/></linearGradient><linearGradient id="fcee2486-1230-41e6-bc3d-66ca36bb0a3c" x1="483.25" y1="151.31" x2="514.33" y2="327.33" gradientTransform="matrix(1, 0, 0, -1, -0.07, 717.95)" gradientUnits="userSpaceOnUse"><stop offset="0" stop-color="#00c7e5" stop-opacity="0.65"/><stop offset="0.6" stop-color="#00c7e5" stop-opacity="0.8"/><stop offset="0.74" stop-color="#00c7e5" stop-opacity="0.91"/><stop offset="0.87" stop-color="#00c7e5" stop-opacity="0.98"/><stop offset="0.98" stop-color="#00c7e5"/></linearGradient><linearGradient id="e103ce73-597c-4acd-b64e-2976cdb5b338" x1="522.16" y1="-179.28" x2="475.42" y2="85.79" gradientTransform="matrix(1, 0, 0, -1, -0.07, 717.95)" gradientUnits="userSpaceOnUse"><stop offset="0" stop-color="#00c7e5" stop-opacity="0"/><stop offset="0.12" stop-color="#02c7e5" stop-opacity="0.02"/><stop offset="0.25" stop-color="#08c9e6" stop-opacity="0.07"/><stop offset="0.38" stop-color="#13cbe7" stop-opacity="0.15"/><stop offset="0.51" stop-color="#21cee9" stop-opacity="0.27"/><stop offset="0.65" stop-color="#34d3eb" stop-opacity="0.43"/><stop offset="0.78" stop-color="#4bd8ed" stop-opacity="0.62"/><stop offset="0.91" stop-color="#66def0" stop-opacity="0.84"/><stop offset="1" stop-color="#79e2f2"/></linearGradient><clipPath id="e8557040-0f9f-4611-a9e2-a162b09b799d" transform="translate(-0.07 -0.18)"><polygon points="997.51 358.72 665.03 295.48 332.55 358.72 665.03 421.68 997.51 358.72" fill="none"/></clipPath><linearGradient id="eb3d8720-6a8b-4e13-a51b-6018baaf2436" x1="595.05" y1="386.03" x2="649.24" y2="693.23" gradientTransform="matrix(1, 0, 0, -1, -0.07, 717.95)" gradientUnits="userSpaceOnUse"><stop offset="0" stop-color="#0052cc" stop-opacity="0"/><stop offset="0.03" stop-color="#0052cc" stop-opacity="0.1"/><stop offset="0.11" stop-color="#0052cc" stop-opacity="0.31"/><stop offset="0.19" stop-color="#0052cc" stop-opacity="0.5"/><stop offset="0.28" stop-color="#0052cc" stop-opacity="0.65"/><stop offset="0.38" stop-color="#0052cc" stop-opacity="0.78"/><stop offset="0.48" stop-color="#0052cc" stop-opacity="0.88"/><stop offset="0.6" stop-color="#0052cc" stop-opacity="0.95"/><stop offset="0.75" stop-color="#0052cc" stop-opacity="0.99"/><stop offset="1" stop-color="#0052cc"/></linearGradient><linearGradient id="b1a7824c-9325-44e4-b2ae-bb0e2e042cdc" x1="721.55" y1="386.05" x2="667.4" y2="693.22" gradientTransform="matrix(1, 0, 0, -1, -0.07, 717.95)" gradientUnits="userSpaceOnUse"><stop offset="0.06" stop-color="#0065ff" stop-opacity="0"/><stop offset="0.09" stop-color="#0065ff" stop-opacity="0.09"/><stop offset="0.15" stop-color="#0065ff" stop-opacity="0.28"/><stop offset="0.22" stop-color="#0065ff" stop-opacity="0.45"/><stop offset="0.29" stop-color="#0065ff" stop-opacity="0.6"/><stop offset="0.37" stop-color="#0065ff" stop-opacity="0.72"/><stop offset="0.45" stop-color="#0065ff" stop-opacity="0.82"/><stop offset="0.55" stop-color="#0065ff" stop-opacity="0.9"/><stop offset="0.65" stop-color="#0065ff" stop-opacity="0.96"/><stop offset="0.78" stop-color="#0065ff" stop-opacity="0.99"/><stop offset="1" stop-color="#0065ff"/></linearGradient><linearGradient id="b5d410da-846d-45a9-8217-3f4948cad152" x1="774.47" y1="365.99" x2="801.76" y2="520.85" gradientTransform="matrix(1, 0, 0, -1, -0.07, 717.95)" gradientUnits="userSpaceOnUse"><stop offset="0" stop-color="#00c7e5" stop-opacity="0"/><stop offset="0.16" stop-color="#00c7e5" stop-opacity="0.26"/><stop offset="0.31" stop-color="#00c7e5" stop-opacity="0.48"/><stop offset="0.47" stop-color="#00c7e5" stop-opacity="0.67"/><stop offset="0.62" stop-color="#00c7e5" stop-opacity="0.81"/><stop offset="0.76" stop-color="#00c7e5" stop-opacity="0.92"/><stop offset="0.89" stop-color="#00c7e5" stop-opacity="0.98"/><stop offset="1" stop-color="#00c7e5"/></linearGradient><linearGradient id="a820fdd5-fbd7-4d7c-bc33-0b31c92a28b3" x1="873.95" y1="366.04" x2="846.62" y2="521.09" gradientTransform="matrix(1, 0, 0, -1, -0.07, 717.95)" gradientUnits="userSpaceOnUse"><stop offset="0" stop-color="#79e2f2" stop-opacity="0"/><stop offset="0.01" stop-color="#79e2f2" stop-opacity="0.04"/><stop offset="0.07" stop-color="#79e2f2" stop-opacity="0.24"/><stop offset="0.14" stop-color="#79e2f2" stop-opacity="0.42"/><stop offset="0.2" stop-color="#79e2f2" stop-opacity="0.58"/><stop offset="0.28" stop-color="#79e2f2" stop-opacity="0.71"/><stop offset="0.35" stop-color="#79e2f2" stop-opacity="0.82"/><stop offset="0.44" stop-color="#79e2f2" stop-opacity="0.9"/><stop offset="0.54" stop-color="#79e2f2" stop-opacity="0.96"/><stop offset="0.66" stop-color="#79e2f2" stop-opacity="0.99"/><stop offset="0.87" stop-color="#79e2f2"/></linearGradient><linearGradient id="fefe2a1b-6d5e-4e8a-8e26-f0a7098314e7" x1="439.15" y1="358.75" x2="466.7" y2="514.79" gradientTransform="matrix(1, 0, 0, -1, -0.07, 717.95)" gradientUnits="userSpaceOnUse"><stop offset="0.06" stop-color="#ff991f" stop-opacity="0"/><stop offset="0.08" stop-color="#ff991f" stop-opacity="0.09"/><stop offset="0.14" stop-color="#ff991f" stop-opacity="0.3"/><stop offset="0.2" stop-color="#ff991f" stop-opacity="0.49"/><stop offset="0.26" stop-color="#ff991f" stop-opacity="0.65"/><stop offset="0.32" stop-color="#ff991f" stop-opacity="0.77"/><stop offset="0.38" stop-color="#ff991f" stop-opacity="0.87"/><stop offset="0.45" stop-color="#ff991f" stop-opacity="0.94"/><stop offset="0.52" stop-color="#ff991f" stop-opacity="0.99"/><stop offset="0.59" stop-color="#ff991f"/></linearGradient><linearGradient id="a553848a-8636-4623-9303-d61614b23d4b" x1="539.01" y1="358.71" x2="511.46" y2="515.01" gradientTransform="matrix(1, 0, 0, -1, -0.07, 717.95)" gradientUnits="userSpaceOnUse"><stop offset="0.06" stop-color="#ffc400" stop-opacity="0"/><stop offset="0.09" stop-color="#ffc400" stop-opacity="0.09"/><stop offset="0.15" stop-color="#ffc400" stop-opacity="0.28"/><stop offset="0.22" stop-color="#ffc400" stop-opacity="0.45"/><stop offset="0.29" stop-color="#ffc400" stop-opacity="0.6"/><stop offset="0.37" stop-color="#ffc400" stop-opacity="0.72"/><stop offset="0.45" stop-color="#ffc400" stop-opacity="0.82"/><stop offset="0.55" stop-color="#ffc400" stop-opacity="0.9"/><stop offset="0.65" stop-color="#ffc400" stop-opacity="0.96"/><stop offset="0.78" stop-color="#ffc400" stop-opacity="0.99"/><stop offset="1" stop-color="#ffc400"/></linearGradient><linearGradient id="ed2aa701-9a7c-4b05-824b-1cf8937204d8" x1="0.07" y1="145.68" x2="665.03" y2="145.68" gradientTransform="matrix(1, 0, 0, -1, 0, 718.13)" gradientUnits="userSpaceOnUse"><stop offset="0" stop-color="#ebecf0" stop-opacity="0"/><stop offset="0.08" stop-color="#daebf0" stop-opacity="0.15"/><stop offset="0.21" stop-color="#c1e8f1" stop-opacity="0.37"/><stop offset="0.34" stop-color="#abe6f1" stop-opacity="0.56"/><stop offset="0.47" stop-color="#99e5f1" stop-opacity="0.72"/><stop offset="0.6" stop-color="#8be4f2" stop-opacity="0.84"/><stop offset="0.73" stop-color="#81e3f2" stop-opacity="0.93"/><stop offset="0.86" stop-color="#7be2f2" stop-opacity="0.98"/><stop offset="0.98" stop-color="#79e2f2"/></linearGradient><clipPath id="ffe1a28f-b138-49b1-8b9f-af09f75c45d6" transform="translate(-0.07 -0.18)"><path d="M461.2,598.92H432.43V580.73l9.5.54c.81,6,3,8.69,4.89,9.77s8.68.55,11.94,3.8A6.56,6.56,0,0,1,461.2,598.92Z" fill="none"/></clipPath><clipPath id="aa4d14e6-55bd-4f94-a78f-5888ae3f318c" transform="translate(-0.07 -0.18)"><path d="M420.49,604.34l-28.23-3.52,1.9-17.92,9.23,1.36c.27,6.24,2.17,8.68,4.07,10s8.41,1.36,11.13,5.43A7.09,7.09,0,0,1,420.49,604.34Z" fill="none"/></clipPath><linearGradient id="f5f9e75a-27cc-4b52-a40a-d82359a5da85" x1="2384.28" y1="324.04" x2="2403.98" y2="324.04" gradientTransform="translate(2814.86 718.13) rotate(180)" gradientUnits="userSpaceOnUse"><stop offset="0" stop-color="#72594b"/><stop offset="0.56" stop-color="#8c715d"/></linearGradient><linearGradient id="b982ad02-2f8d-4b4d-95ec-33877dcd6937" x1="-10371.26" y1="256.95" x2="-10371.26" y2="322.24" gradientTransform="matrix(1, 0, 0, -1, 10790.8, 718.13)" gradientUnits="userSpaceOnUse"><stop offset="0" stop-color="#0052cc"/><stop offset="0.04" stop-color="#0055d3"/><stop offset="0.17" stop-color="#005ce7"/><stop offset="0.31" stop-color="#0061f4"/><stop offset="0.5" stop-color="#0064fd"/><stop offset="0.82" stop-color="#0065ff"/></linearGradient><linearGradient id="ec4ab532-dd39-44f8-9400-273357fb4117" x1="-6.76" y1="965.33" x2="131.39" y2="1103.48" gradientTransform="matrix(0.76, -0.3, -0.41, -0.91, 908.05, 1361.71)" gradientUnits="userSpaceOnUse"><stop offset="0" stop-color="#f0f2f5"/><stop offset="0.19" stop-color="#fbfcfc"/><stop offset="0.4" stop-color="#fff"/></linearGradient><linearGradient id="eb789cd4-1bf4-48c3-b1c7-0f1ffcdd1edc" x1="-7092.68" y1="5658.41" x2="-7092.38" y2="5681.86" gradientTransform="matrix(0.42, -0.91, -0.91, -0.42, 8593.53, -3613.34)" gradientUnits="userSpaceOnUse"><stop offset="0" stop-color="#0052cc"/><stop offset="0.49" stop-color="#005be4"/><stop offset="0.97" stop-color="#0065ff"/></linearGradient><linearGradient id="efeeed08-6a9b-4517-99f1-0a26d1a63499" x1="230.36" y1="222.46" x2="230.36" y2="230.82" gradientTransform="matrix(1, 0, 0, -1, -0.07, 717.95)" gradientUnits="userSpaceOnUse"><stop offset="0" stop-color="#ffc400"/><stop offset="1" stop-color="#ff991f"/></linearGradient><linearGradient id="b9cbb2c3-f742-4280-bb53-99a5a1fffc32" x1="106.84" y1="-171.03" x2="106.84" y2="-49.19" gradientTransform="matrix(1, -0.06, -0.06, -1, 113.36, 437.03)" gradientUnits="userSpaceOnUse"><stop offset="0.41" stop-color="#0057d8"/><stop offset="0.55" stop-color="#0059dd"/><stop offset="0.72" stop-color="#005eeb"/><stop offset="0.88" stop-color="#0065ff"/></linearGradient><linearGradient id="a7ac410a-5adc-4aa0-9fbc-36816c00614a" x1="-9091.19" y1="-1281.1" x2="-9091.19" y2="-1154.57" gradientTransform="matrix(-0.95, 0.3, -0.3, -0.95, -8774.85, 2058.13)" gradientUnits="userSpaceOnUse"><stop offset="0" stop-color="#0057d8"/><stop offset="1" stop-color="#0065ff"/></linearGradient><linearGradient id="fab0ffb4-9f19-4253-975c-a82a7a01bd1c" x1="2176.57" y1="423.6" x2="2209" y2="411.79" gradientTransform="translate(2983.16 718.13) rotate(180)" gradientUnits="userSpaceOnUse"><stop offset="0.13" stop-color="#0065ff"/><stop offset="1" stop-color="#0052cc"/></linearGradient><linearGradient id="f697ab4c-871c-427a-8825-ad8c053a1b28" x1="310.57" y1="154.91" x2="378.61" y2="154.91" gradientTransform="matrix(1, 0, 0, -1, 0, 718.13)" gradientUnits="userSpaceOnUse"><stop offset="0" stop-color="#0057d8"/><stop offset="0.41" stop-color="#0058db"/><stop offset="0.66" stop-color="#005be3"/><stop offset="0.87" stop-color="#0060f1"/><stop offset="1" stop-color="#0065ff"/></linearGradient></defs><g id="b8413a44-f062-4786-b1a8-2669dfacb05b" data-name="Layer 2"><g id="eba49674-b639-47d0-8db1-a041b9623287" data-name="Layer 1-2"><g id="bc136a7e-f6b5-4b21-bd76-627155b8f2a1" data-name="Main"><polygon points="997.44 654.91 664.96 716.52 664.96 418.79 997.44 357.45 997.44 654.91" fill="url(#ae3f234c-a57f-4586-a627-a920035c5189)"/><polygon points="332.48 930.67 0 867.7 0 598.73 332.48 661.7 332.48 930.67" fill="url(#a8cb83f1-884b-4887-bf34-bf0c04435142)"/><polygon points="664.96 598.73 333.29 536.31 332.48 358.53 664.96 421.5 664.96 598.73" fill="url(#fcee2486-1230-41e6-bc3d-66ca36bb0a3c)"/><polygon points="664.96 867.7 332.48 930.67 332.48 661.7 664.96 598.73 664.96 867.7" fill="url(#e103ce73-597c-4acd-b64e-2976cdb5b338)"/><polygon id="a8dc8b2a-d177-4ae7-bb42-ce8ab1bc89b2" data-name=" Clipping Path 6" points="664.96 598.73 332.48 535.77 0 598.73 332.48 661.7 664.96 598.73" fill="#b3f5ff"/><g opacity="0.4"><rect x="358.99" y="68.94" width="302.89" height="5.65" transform="translate(-4.52 95.84) rotate(-10.7)" fill="#79e2f2"/><rect x="358.95" y="105.5" width="302.89" height="5.65" transform="translate(-11.31 96.47) rotate(-10.7)" fill="#79e2f2"/><rect x="358.74" y="141.45" width="302.89" height="5.65" transform="translate(-18.07 97.97) rotate(-10.8)" fill="#79e2f2"/><rect x="358.77" y="177.71" width="302.89" height="5.65" transform="translate(-24.86 98.62) rotate(-10.8)" fill="#79e2f2"/><rect x="358.86" y="214.61" width="302.89" height="5.65" transform="translate(-31.57 98.34) rotate(-10.7)" fill="#79e2f2"/><rect x="358.82" y="250.89" width="302.89" height="5.65" transform="translate(-38.31 98.97) rotate(-10.7)" fill="#79e2f2"/><rect x="358.53" y="97.17" width="5.7" height="221.01" fill="#79e2f2"/><rect x="401.42" y="89.29" width="5.7" height="221.01" fill="#79e2f2"/><rect x="444.3" y="81.69" width="5.7" height="220.74" fill="#79e2f2"/><rect x="487.45" y="73.55" width="5.7" height="220.74" fill="#79e2f2"/><rect x="530.34" y="65.68" width="5.7" height="221.01" fill="#79e2f2"/><rect x="573.22" y="57.81" width="5.7" height="221.01" fill="#79e2f2"/><rect x="616.1" y="49.94" width="5.7" height="221.01" fill="#79e2f2"/><rect x="658.99" y="42.07" width="5.7" height="221.01" fill="#79e2f2"/><rect x="802.74" y="138.23" width="5.7" height="302.49" transform="translate(371.5 1027.13) rotate(-79.3)" fill="#79e2f2"/><rect x="802.83" y="101.63" width="5.7" height="302.49" transform="translate(407.54 997.41) rotate(-79.3)" fill="#79e2f2"/><rect x="803.44" y="65.63" width="5.7" height="302.54" transform="translate(442.07 968.08) rotate(-79.2)" fill="#79e2f2"/><rect x="803.54" y="29.23" width="5.7" height="302.54" transform="translate(477.91 938.61) rotate(-79.2)" fill="#79e2f2"/><rect x="803.09" y="-7.06" width="5.7" height="302.49" transform="translate(514.56 909.16) rotate(-79.3)" fill="#79e2f2"/><rect x="802.91" y="-43.72" width="5.7" height="302.49" transform="translate(550.43 879.13) rotate(-79.3)" fill="#79e2f2"/><rect x="654.37" y="42.88" width="5.7" height="221.01" fill="#79e2f2"/><rect x="697.26" y="50.75" width="5.7" height="221.01" fill="#79e2f2"/><rect x="740.14" y="58.62" width="5.7" height="220.74" fill="#79e2f2"/><rect x="783.02" y="66.5" width="5.7" height="220.74" fill="#79e2f2"/><rect x="825.9" y="74.64" width="5.7" height="220.74" fill="#79e2f2"/><rect x="869.06" y="82.24" width="5.7" height="221.01" fill="#79e2f2"/><rect x="911.94" y="90.11" width="5.7" height="221.01" fill="#79e2f2"/><rect x="954.82" y="97.98" width="5.7" height="221.01" fill="#79e2f2"/><rect x="314.41" y="290.81" width="347.68" height="5.65" transform="matrix(0.98, -0.19, 0.19, 0.98, -46.45, 96.51)" fill="#79e2f2"/><rect x="804.43" y="-79.33" width="5.7" height="302.49" transform="translate(586.66 851.62) rotate(-79.3)" fill="#79e2f2"/><rect x="826.65" y="121.15" width="5.7" height="346.21" transform="translate(384.95 1053.74) rotate(-79.2)" fill="#79e2f2"/><rect x="358.53" y="58.62" width="5.7" height="296.95" fill="#79e2f2"/></g><polygon id="fe289958-4566-4ebc-82f0-298e77af07c2" data-name=" Clipping Path 7" points="997.44 358.53 664.96 295.3 332.48 358.53 664.96 421.5 997.44 358.53" fill="#b3f5ff"/><g clip-path="url(#e8557040-0f9f-4611-a9e2-a162b09b799d)"><ellipse cx="638.9" cy="406.3" rx="79.25" ry="8.41" fill="#b3f5ff"/></g><polygon points="585.98 13.57 585.98 329.49 658.17 343.06 658.17 27.41 585.98 13.57" fill="url(#eb3d8720-6a8b-4e13-a51b-6018baaf2436)"/><polygon points="730.64 13.57 658.17 27.41 658.17 343.06 730.64 329.49 730.64 13.57" fill="url(#b1a7824c-9325-44e4-b2ae-bb0e2e042cdc)"/><polygon points="896.47 188.36 824 174.52 752.08 188.36 824 201.93 896.47 188.36" fill="#b3f5ff"/><polygon points="752.08 188.36 752.08 347.13 824 360.7 824 201.93 752.08 188.36" fill="url(#b5d410da-846d-45a9-8217-3f4948cad152)"/><polygon points="896.47 188.36 824 201.93 824 360.7 896.47 347.13 896.47 188.36" fill="url(#a820fdd5-fbd7-4d7c-bc33-0b31c92a28b3)"/><polygon points="561.28 194.33 489.08 180.49 416.62 194.33 489.08 207.63 561.28 194.33" fill="#ffe380"/><polygon points="416.62 194.33 416.62 354.19 489.08 368.03 489.08 207.63 416.62 194.33" fill="url(#fefe2a1b-6d5e-4e8a-8e26-f0a7098314e7)"/><polygon points="561.28 194.33 489.08 207.63 489.08 368.03 561.28 354.19 561.28 194.33" fill="url(#a553848a-8636-4623-9303-d61614b23d4b)"/><g opacity="0.6"><polygon points="2.17 562.91 1.9 557.21 28.23 552.05 28.23 557.75 2.17 562.91" fill="#79e2f2"/></g><g opacity="0.6"><polygon points="1.9 541.74 1.9 536.04 28.23 531.15 28.23 536.85 1.9 541.74" fill="#79e2f2"/></g><g opacity="0.6"><polygon points="1.9 520.57 1.9 514.87 28.23 509.98 28.23 515.68 1.9 520.57" fill="#79e2f2"/></g><g opacity="0.6"><polygon points="1.9 499.67 1.9 493.97 28.23 489.35 28.23 494.78 1.9 499.67" fill="#79e2f2"/></g><g opacity="0.6"><polygon points="1.9 478.5 1.9 472.8 28.23 468.18 28.23 473.61 1.9 478.5" fill="#79e2f2"/></g><g opacity="0.6"><polygon points="2.17 457.6 1.9 451.9 28.23 447.01 28.23 452.44 2.17 457.6" fill="#79e2f2"/></g><g opacity="0.6"><polygon points="1.9 436.43 1.9 430.73 28.23 426.12 29.31 431.54 1.9 436.43" fill="#79e2f2"/></g><g opacity="0.6"><polygon points="2.17 415.53 1.9 409.83 28.23 404.94 28.23 410.37 2.17 415.53" fill="#79e2f2"/></g><g opacity="0.6"><polygon points="1.9 394.36 1.9 388.66 28.23 384.05 28.23 389.48 1.9 394.36" fill="#79e2f2"/></g><g opacity="0.6"><polygon points="2.17 373.46 1.9 367.76 28.23 362.88 28.23 368.31 2.17 373.46" fill="#79e2f2"/></g><g opacity="0.6"><polygon points="1.9 352.29 1.9 346.59 28.23 341.98 28.23 347.41 1.9 352.29" fill="#79e2f2"/></g><polygon points="42.88 554.76 42.88 549.34 223.91 515.14 223.91 520.84 42.88 554.76" fill="#0065ff"/><polygon points="42.88 534.14 42.88 528.44 115.89 514.6 115.89 520.29 42.88 534.14" fill="#0065ff"/><polygon points="42.88 512.97 42.88 507.27 214.41 474.7 214.41 480.4 42.88 512.97" fill="#79e2f2"/><polygon points="122.41 476.6 122.14 471.17 272.77 442.67 272.77 448.1 122.41 476.6" fill="#ffab00"/><polygon points="41.8 492.07 41.8 486.37 107.48 473.88 107.75 479.58 41.8 492.07" fill="#ffab00"/><polygon points="42.88 470.9 42.88 465.2 214.41 432.9 214.41 438.33 42.88 470.9" fill="#0065ff"/><polygon points="42.88 450 42.88 444.3 299.91 395.45 299.91 401.15 42.88 450" fill="#0065ff"/><polygon points="206.54 397.62 206.27 392.19 299.91 374.28 299.91 379.98 206.54 397.62" fill="#79e2f2"/><polygon points="42.88 428.83 42.88 423.13 128.38 406.85 129.46 412.27 42.88 428.83" fill="#0065ff"/><polygon points="42.88 407.66 42.88 401.96 300.45 353.38 300.45 359.08 42.88 407.66" fill="#2684ff"/><polygon points="42.88 386.76 42.88 381.06 142.76 362.33 143.03 367.76 42.88 386.76" fill="#2684ff"/><polygon points="122.95 350.66 122.95 344.96 238.84 322.98 238.84 328.41 122.95 350.66" fill="#79e2f2"/><polygon points="42.88 365.59 42.88 359.89 111.01 347.13 111.01 352.83 42.88 365.59" fill="#2684ff"/><polygon points="42.88 344.69 42.88 338.99 133.81 321.89 133.81 327.32 42.88 344.69" fill="#ffab00"/><g opacity="0.6"><polygon points="1.9 331.12 1.9 325.42 28.23 320.81 28.23 326.24 1.9 331.12" fill="#79e2f2"/></g><g opacity="0.6"><polygon points="2.17 310.22 1.9 304.52 28.23 299.64 28.23 305.07 2.17 310.22" fill="#79e2f2"/></g><g opacity="0.6"><polygon points="1.9 289.05 1.9 283.35 28.23 278.74 28.23 284.17 1.9 289.05" fill="#79e2f2"/></g><g opacity="0.6"><polygon points="2.17 268.15 1.9 262.45 28.23 257.57 28.23 263 2.17 268.15" fill="#79e2f2"/></g><polygon points="42.88 323.52 42.88 317.82 237.49 280.91 237.49 286.34 42.88 323.52" fill="#ffab00"/><path d="M665,598.92,332.55,536,.07,598.92a996.21,996.21,0,0,1,165.29-17.65,873.15,873.15,0,0,1,113.18,4.89c-1.36.54-2.17,1.36-2.17,2.17s21.17,7.33,47.5,7.33A182.4,182.4,0,0,0,351,594.3l29.31,3.53c-4.61,1.09-7.06,2.44-7.06,3.8S394.43,609,420.49,609c21.44,0,39.35-2.17,45.05-5.16A1528.61,1528.61,0,0,0,665,598.92Z" transform="translate(-0.07 -0.18)" fill="url(#ed2aa701-9a7c-4b05-824b-1cf8937204d8)"/><polygon points="42.88 302.35 42.88 296.65 223.91 262.45 223.91 268.15 42.88 302.35" fill="#0065ff"/><polygon points="42.88 281.45 42.88 275.75 115.89 261.91 115.89 267.61 42.88 281.45" fill="#0065ff"/><polygon points="42.88 260.28 42.88 254.58 168.28 230.97 168.28 236.4 42.88 260.28" fill="#79e2f2"/><path id="a6b617b5-2000-4adf-be59-38d405008159" data-name=" Clipping Path 8" d="M461.2,598.92H432.43V580.73l9.5.54c.81,6,3,8.69,4.89,9.77s8.68.55,11.94,3.8A6.56,6.56,0,0,1,461.2,598.92Z" transform="translate(-0.07 -0.18)" fill="#344563"/><g clip-path="url(#ffe1a28f-b138-49b1-8b9f-af09f75c45d6)"><rect x="445.6" y="583.22" width="2.71" height="29.72" transform="translate(-157.38 1036.46) rotate(-89.2)" fill="#344563"/></g><circle cx="436.97" cy="587.61" r="2.17" fill="#344563"/><path id="e288940d-9948-4d27-b461-e43b475f42f9" data-name=" Clipping Path 9" d="M420.49,604.34l-28.23-3.52,1.9-17.92,9.23,1.36c.27,6.24,2.17,8.68,4.07,10s8.41,1.36,11.13,5.43A7.09,7.09,0,0,1,420.49,604.34Z" transform="translate(-0.07 -0.18)" fill="#344563"/><g clip-path="url(#aa4d14e6-55bd-4f94-a78f-5888ae3f318c)"><rect x="404.56" y="587.08" width="2.71" height="29.72" transform="translate(-240.5 932.42) rotate(-83.1)" fill="#344563"/></g><circle cx="398.97" cy="592.76" r="2.17" fill="#253858"/><polygon points="432.63 580.82 442.13 580.82 442.4 568.34 431.81 568.34 432.63 580.82" fill="#b2d4ff"/><path d="M444.37,505.28l-1.9,63.24H431.89a287.09,287.09,0,0,1-3-50.48c0-3.8.27-7.88.54-11.4Z" transform="translate(-0.07 -0.18)" fill="#8c715d"/><path d="M419.4,506.91,405,575.3l-10-2.71a309.35,309.35,0,0,1,5.7-54.55c.81-4.08,1.62-8.15,2.71-12.22Z" transform="translate(-0.07 -0.18)" fill="#8c715d"/><path d="M430.53,396.17a11.67,11.67,0,0,1-7.06,8.42,12.22,12.22,0,0,1-12.75-1.9,36.12,36.12,0,0,0,0-20.09l17.1,4.34a16,16,0,0,0,0,5.16c0,2.17.27,3,.81,3.53Z" transform="translate(-0.07 -0.18)" fill="url(#f5f9e75a-27cc-4b52-a40a-d82359a5da85)"/><path d="M489.16,420.6h10.31c.54-.27,1.08.27,1.36.81s0,.55-.28.55,1.09.54,1.09,1.08a1.35,1.35,0,0,1-.27,1.63h-.54a2.21,2.21,0,0,1,.54,1.09,2.16,2.16,0,0,1-2.17,1.62.83.83,0,0,1,0,1.09c-.27.27-.55.81-1.09.81l-5.7,1.63a7.83,7.83,0,0,1-4.34-.27l-1.63-1.08c-1.36,1.35-2.17,1.08-2.17,1.08a9.49,9.49,0,0,1-.54-6Z" transform="translate(-0.07 -0.18)" fill="#a27f68"/><path d="M453.6,433.63a4.84,4.84,0,0,1,3.26.81l8.95-4.88c6.25-2.45,9.5-3,16.29-6l5.7-3,.81,6.78c-6.24,5.16-12.21,10.32-18.72,15.2a32.45,32.45,0,0,1-6.79,3.53c-3,1.09-10.86,4.07-13.57.54S449.53,435,453.6,433.63Z" transform="translate(-0.07 -0.18)" fill="#a27f68"/><path d="M455.77,448.28l-4.34.55A15.77,15.77,0,0,1,443,443.4l-10.86-11.13V408.66a56.89,56.89,0,0,1,5.43,6,66.43,66.43,0,0,0,10.58,12.48c5.43,5.16,7.33,4.89,8.69,8.14S457.4,444.48,455.77,448.28Z" transform="translate(-0.07 -0.18)" fill="#0049b0"/><path d="M398.23,515.32V514c1.36-13.84,2.45-15.47,3.8-29.58.82-9.5,1.63-18.18,2.72-27.14h35c1.9,13.57,3.26,27.95,4.07,42.88a123.58,123.58,0,0,1,.81,14.39,16,16,0,0,1-16,.54c-1.09-8.41-2.44-11.67-3.53-22.53a198,198,0,0,1-4.61,21.17,9.73,9.73,0,0,0-.54,2.72,19.92,19.92,0,0,1-7.88,1.9A23.09,23.09,0,0,1,398.23,515.32Z" transform="translate(-0.07 -0.18)" fill="#172b4d"/><path id="e275a7d4-1ab9-47ae-80be-75d0277fc18a" data-name=" Clipping Path 10" d="M434.33,395.9h-4.89a10,10,0,0,1-13.29,2.17l-3.8-2.17-11.67,7.33a6,6,0,0,0-3,6.24c0,1.63.54,4.07.81,6.24a130.87,130.87,0,0,0,3,17.92c1.09,4.61,1.9,9.22,2.71,13.57l.82,10a39.63,39.63,0,0,0,35-.27,27.61,27.61,0,0,0-.54-6.79,25.38,25.38,0,0,1-.27-4.61,13.42,13.42,0,0,1,.54-5.7c2.44-9-2.44-12.21-.54-22.53.81-3,1.62-6,2.17-8.95a28.57,28.57,0,0,0-.27-6.79,6,6,0,0,0-6.23-5.7h-.56Z" transform="translate(-0.07 -0.18)" fill="url(#b982ad02-2f8d-4b4d-95ec-33877dcd6937)"/><path d="M484.54,421.68l1.36-1.08a9.78,9.78,0,0,1,4.61-1.9l6.52-1.36h0a2.45,2.45,0,0,1-1.37,3.17l-.26.09-2.45.81-6.24,6.25-3.8-2.18h0A4.09,4.09,0,0,1,484.54,421.68Z" transform="translate(-0.07 -0.18)" fill="#a27f68"/><path d="M626,389.66,478.84,447.47a3.8,3.8,0,0,1-4.8-2.42c0-.1-.06-.2-.08-.3L445.46,381c-1.06-2.9,1.36-5.15,1.36-5.15l147.1-58.09a5.71,5.71,0,0,1,6.79,3.8l27.14,61.07a5.17,5.17,0,0,1-1.36,6.79H626Z" transform="translate(-0.07 -0.18)" fill="url(#ec4ab532-dd39-44f8-9400-273357fb4117)"/><path d="M600.16,348.13l-9.5,4.07a4.87,4.87,0,0,1-5.15-3l-5.43-11.67a4.34,4.34,0,0,1,1.36-5.43h0l10-3.53a4.07,4.07,0,0,1,4.88,2.71L601.52,343a3.52,3.52,0,0,1-.81,4.88Z" transform="translate(-0.07 -0.18)" fill="#ffab00"/><path d="M483.73,445.84l-4.89,1.63a3.8,3.8,0,0,1-4.8-2.42c0-.1-.06-.2-.08-.3L445.46,381c-1.71-4.05,1.36-5.15,1.36-5.15h0l4.73-1.87Z" transform="translate(-0.07 -0.18)" fill="#ffab00"/><rect x="465.25" y="364.51" width="79.52" height="2.82" transform="translate(-98.77 209.31) rotate(-21.4)" fill="#cfd4db"/><rect x="468.6" y="372.54" width="79.6" height="2.83" transform="translate(-102.3 214.24) rotate(-21.7)" fill="#cfd4db"/><rect x="474.54" y="386.68" width="66.5" height="2.82" transform="translate(-106.67 211.85) rotate(-21.4)" fill="#cfd4db"/><rect x="489.17" y="419.97" width="45.87" height="2.82" transform="translate(-119.59 219.03) rotate(-21.7)" fill="#cfd4db"/><path id="f6c8fa80-9f4f-4f34-a738-09ca5eaecc54" data-name=" Path 2" d="M422.93,391c7.33,1.36,7.87,1.36,8.69.55a8.74,8.74,0,0,0,1.9-5.16,16.38,16.38,0,0,0,1.35-3.8c.27-.81,1.63.54,2.17,0s0-1.08-.54-2.17a14.76,14.76,0,0,1-1.08-4.07v-.54a13.58,13.58,0,0,0-19.55-12.49,13.84,13.84,0,0,0-6.78,10.31,28.63,28.63,0,0,0,1.36,8.42h0v.54c.27.82,1.9,1.9,1.9,1.9l2.71,1.36c1.36.81.81,2.17,1.9,3.53S419.13,390.74,422.93,391Z" transform="translate(-0.07 -0.18)" fill="#8c715d"/><path d="M414.69,384.31c1.91-.84,1.09-5.57,2.45-5.85s1.36.56,2.46,1.39h2.18a16,16,0,0,1,.82-5c.81-2.79,1.36-5.29,3-5.57s1.91.56,6.54,2.78l3.08,1.14c0-.84-.35-1.41-.35-2a12.48,12.48,0,0,0-4.36-6.12,14.26,14.26,0,0,0-15-2.23A13.1,13.1,0,0,0,409,373.45a30,30,0,0,0,1.36,8.63h0v.56C410.59,383.19,413.05,385.42,414.69,384.31Z" transform="translate(-0.07 -0.18)" fill="#172b4d"/><path d="M456.31,392.91l6.25-8.41c.27-.54.81-.54,1.35-.27h1.9c.55.27,1.09,1.09.82,1.63h1.08a2.16,2.16,0,0,1-.27,2.71l.82.82c.54.54.54,1.08,0,1.35a33.06,33.06,0,0,1-2.17,5.43,14,14,0,0,1-4.62,4.34,2.45,2.45,0,0,1-1.08,2.18c-.82.27-3-.82-4.62-3.26Z" transform="translate(-0.07 -0.18)" fill="#a27f68"/><path d="M454.14,397.26v-1.9a15.81,15.81,0,0,1,1.63-4.62l3-6.24h0a2.71,2.71,0,0,1,1.35,3.53L459,390.47l1.08,8.69-3.8,1.63h0A4.36,4.36,0,0,1,454.14,397.26Z" transform="translate(-0.07 -0.18)" fill="#a27f68"/><path d="M428.09,423a7.24,7.24,0,0,1,3.25-.81l7.33-8.42c5.43-5.15,8.42-7.05,14.12-13l4.88-5.43,3.53,6.51a240.84,240.84,0,0,1-12.76,23.34,43.43,43.43,0,0,1-5.42,6.52c-2.72,2.44-9.5,8.14-13.58,6S424,425.76,428.09,423Z" transform="translate(-0.07 -0.18)" fill="#a27f68"/><path d="M400.68,405.13a8.4,8.4,0,0,0-2.45,6,11.66,11.66,0,0,0,3,5.7c6.24,6.24,9.23,7.06,14.38,12.48a38.26,38.26,0,0,0,9,7.06l3.26.81a12.06,12.06,0,0,1,1.35-4.07l2.72-3.52c1.35-1.36,2.44-3.8,1.08-9.5H430.8c-9.23-2.18-10.58-10.59-20.08-14.12C406.92,403.77,402.58,403.5,400.68,405.13Z" transform="translate(-0.07 -0.18)" fill="url(#eb789cd4-1bf4-48c3-b1c7-0f1ffcdd1edc)"/><polygon points="394.09 582.72 403.32 584.08 406.3 568.88 394.9 568.34 394.09 582.72" fill="#b2d4ff"/><ellipse cx="230.43" cy="615.83" rx="51.84" ry="8.14" fill="#b3f5ff"/><path d="M213.67,414.9c-.81,2.44-1.9,5.16-3,7.6a69,69,0,0,1-23.07,26.05,32.11,32.11,0,0,0,6,9c12.48,11.4,31.48,6.51,33.65,6,12.22-9,15.75-24.43,10-35.28A26.32,26.32,0,0,0,213.67,414.9Z" transform="translate(-0.07 -0.18)" fill="#172b4d"/><path d="M210.69,425.21a3.31,3.31,0,0,0,4.07-3c.27-1.9,1.08-4.35,1.36-6.25l13,1.63c-.27,1.09-.27,1.9-.54,3.53a25.49,25.49,0,0,0-.27,4.62,6,6,0,0,0,1.9,2.44A25.8,25.8,0,0,1,210.69,425.21Z" transform="translate(-0.07 -0.18)" fill="#a27f68"/><path d="M206.07,424.67l13,1.36,15.47,3-1.63,7.6-21.17,3-7.6-11.94Z" transform="translate(-0.07 -0.18)" fill="#a27f68"/><path d="M228.6,421.41a41.19,41.19,0,0,1-14.93-2.71c-1.08-.27-3-1.36-3.25-2.72s.27-1.62.27-2.44v-1.9a5.12,5.12,0,0,1,.81-2.71c-.54,0-.81-.27-1.08-.82s-.82-.54-.82-.81l2.44-3a5.09,5.09,0,0,0,.55-2.17,20.53,20.53,0,0,1,4.88-7.05h0A13.58,13.58,0,0,1,227.79,391h0a13.59,13.59,0,0,1,10,6.52l.54.54.82,2.72h0a12.77,12.77,0,0,1-5.7,12.75l-2.18,1.63Z" transform="translate(-0.07 -0.18)" fill="#b5917c"/><path d="M239.46,409.2c-2.17,4.88-4.89,5.7-6,10a15.22,15.22,0,0,0,1.08,9.77,14.1,14.1,0,0,1-11.4-2.44c-6-4.07-8.14-13.3-4.07-22.26a9,9,0,0,1-2.71-9.5A7.11,7.11,0,0,1,221,391c5.43-1.62,14.66-.81,18.46,6.25C241.21,400.9,240.8,405.35,239.46,409.2Z" transform="translate(-0.07 -0.18)" fill="#172b4d"/><path d="M248.14,602.72a28.18,28.18,0,0,0-.54,11.67l2.71,1.35.82-1.35,1.08,1.9a13.86,13.86,0,0,0,5.7,2.71,12.78,12.78,0,0,0,4.62.81c2.71,0,6.24-.54,6.51-1.62s-1.36-1.63-4.07-3.8l-4.89-4.89a21,21,0,0,1-3.25-6l-.55-1.9Z" transform="translate(-0.07 -0.18)" fill="#172b4d"/><path d="M211.5,601.63a9.7,9.7,0,0,1-2.17,6.24c-4.34,5.43-13.84,4.62-14.11,6.79s.27.54.54.81c10.58.82,14.66.54,16-.27l2.45-.81,1.9.81h7.32c0-2.71-.27-5.16-.27-7.87l-1.08-4.61Z" transform="translate(-0.07 -0.18)" fill="#172b4d"/><polygon points="238.57 487.18 238.57 495.32 222.01 488.27 238.57 487.18" fill="url(#efeeed08-6a9b-4517-99f1-0a26d1a63499)"/><path d="M204.72,484.65c-.28,3.53-.55,8.69-.55,14.93-.54,21.71,1.36,36.1,3,57.27.81,12.48,2.17,28.22,3.53,46.68h12.48c0-3.26-.27-8.41,0-14.11.55-12.49,2.17-17.37,1.9-27.14a106.45,106.45,0,0,0-1.9-16l6.52-33.38a23.12,23.12,0,0,0,13.3-11.4,21.18,21.18,0,0,0-2.72-21.17Z" transform="translate(-0.07 -0.18)" fill="url(#b9cbb2c3-f742-4280-bb53-99a5a1fffc32)"/><polygon points="238.03 485.01 241.28 484.2 244.27 483.65 241.28 488 238.03 485.01" fill="#b5917c"/><path d="M212.32,484.65c2.44,6.52,5.15,13.3,7.32,20.09,5.16,13.57,10.05,27.14,14.12,40.71l11.13,59.71L257.1,603l-5.43-61.61c-.54-6.52-3.8-46.69-4.88-52.39l-.55-1.9a23.35,23.35,0,0,0-3.8-7.87l-2.17,1.09Z" transform="translate(-0.07 -0.18)" fill="url(#a7ac410a-5adc-4aa0-9fbc-36816c00614a)"/><rect x="239.15" y="491.24" width="40.79" height="5" transform="translate(-29.22 16.27) rotate(-3.44)" fill="#ffab00"/><path d="M254.11,500.66l-2.17-5.42,10,3.53v1.62l-.54,1.09a3.25,3.25,0,0,1-4.34.81h-2.17A1.36,1.36,0,0,1,254.11,500.66Z" transform="translate(-0.07 -0.18)" fill="#a27f68"/><path d="M254.11,487.91a25.38,25.38,0,0,0-2.17,7.33l10,3.53v-1.9a5.37,5.37,0,0,1-.27-2.18,13.59,13.59,0,0,0-.54-5.7,16.55,16.55,0,0,0-1.36-3.25l-5.43-.55Z" transform="translate(-0.07 -0.18)" fill="#a27f68"/><path d="M149.35,380.16a11.64,11.64,0,0,0,1.08,5.16,10.28,10.28,0,0,0,2.72,3.25l3.26,2.17c2.17.55,5.42.27,6-.81s-.28-1.36-1.09-3l-1.36-2.71-.54-2.17c-.81-1.63-1.36-1.63-1.63-2.44s.82-3.8.27-4.62-3.52-.54-4.88.27A7.59,7.59,0,0,0,149.35,380.16Z" transform="translate(-0.07 -0.18)" fill="#cf9e76"/><rect x="122.53" y="378.2" width="66.66" height="5" transform="translate(-197.99 170.61) rotate(-37.05)" fill="#0065ff"/><path d="M178.39,421.41l14.66,1.9,18.18,1.9c0,.82.54,7.06,5.16,9.23a12.26,12.26,0,0,0,7.6-.81A49.93,49.93,0,0,0,234.3,429a62.89,62.89,0,0,1,10.86,6.24c9.77,6.52,17.91,11.68,20.9,20.9.81,2.72.54,7.06.27,15.2a85.16,85.16,0,0,1-2.17,16.83,11.17,11.17,0,0,1-7.33,1.09,9.61,9.61,0,0,1-3.8-1.63l.81-13.57c.27-4.35.82-9,1.09-13.57a55.14,55.14,0,0,0-15.74-12.76A51.26,51.26,0,0,1,234.84,467l4.35,7.06a32.21,32.21,0,0,1,3,5.15,46.89,46.89,0,0,1-24.15,7.6,54.62,54.62,0,0,1-14.93-2.17l1.35-23.07a26.69,26.69,0,0,1-3-4.61,15.42,15.42,0,0,1-2.17-6.79,42.72,42.72,0,0,1,1.08-5.7,28.67,28.67,0,0,0,1.9-5.15l-12.21-1.63c-14.93-2.45-17.64-4.62-19-5.7s-3.8-5.43-7.06-12.49-4.07-10.58-6-16-3-9.23-4.07-13.57l7.6-2.71c2.72,5.15,6,10.31,8.69,16A120.81,120.81,0,0,1,178.39,421.41Z" transform="translate(-0.07 -0.18)" fill="#253858"/><path d="M672.36,383.69l4.07-1.36H681V401.6a3.24,3.24,0,0,1-.81,2.71c-.54.55-1.09,1.09-1.63,1.09h-7.33l.82-1.63c1.35-2.17,3.52-1.63,4.07-3.53a3.78,3.78,0,0,0,0-2.44l-.82-2.17a3.5,3.5,0,0,0-1.9-1.63Z" transform="translate(-0.07 -0.18)" fill="#253858"/><circle cx="612.85" cy="287.15" r="11.4" fill="#172b4d"/><path d="M631.1,346.23a74.63,74.63,0,0,1-3.8,33.66l-4.88-.55c0-1.35,0-4.34-.27-7.32s-1.09-8.69-1.36-13.57a41.79,41.79,0,0,1,.54-10.05L617,340c-3.8-9-7.6-17.37-10.31-25.51a2.16,2.16,0,0,1,.81-2.45h0l10-3.25Z" transform="translate(-0.07 -0.18)" fill="#0049b0"/><path d="M676.7,398.34l-37.45,7.06a10,10,0,0,1-9-3.26,9.5,9.5,0,0,1-2.72-6.51,18.72,18.72,0,0,1,.82-9.5c0-.54,0-.81.27-1.09,3.53-12.21,5.43-16.55,7.06-23.07s1.63-9.77,3.8-15.2a48.64,48.64,0,0,1,15.2-19.54,28.92,28.92,0,0,1,4.61,7.06,30,30,0,0,1,3.8,9.23,26.51,26.51,0,0,1-.27,9.23,59.14,59.14,0,0,1-7.06,20.08,137.2,137.2,0,0,1-8.41,13.3l14.93-4.61L674,378.8Z" transform="translate(-0.07 -0.18)" fill="#0049b0"/><path d="M654.72,327.23c1.62,2.45,3.25,4.62,4.61,7.06a21.17,21.17,0,0,1,3.8,15.47,14.09,14.09,0,0,1-6.51,10L651.73,362a29.39,29.39,0,0,1-7.33,2.72,96.17,96.17,0,0,1-21.71.81,54.39,54.39,0,0,1,8.41,7.33,75.42,75.42,0,0,1,10.32,10.59l-16.29,11.39a156.07,156.07,0,0,1-13-13.57,190.6,190.6,0,0,1-13.29-16.82,10.61,10.61,0,0,1-.28-6.52,10.89,10.89,0,0,1,6.79-7l18.46-6,13.57-4.35,10.31-7Z" transform="translate(-0.07 -0.18)" fill="#0065ff"/><path d="M612.92,333.48l23.88,7.32a77.74,77.74,0,0,0,17.92-13.57,224.6,224.6,0,0,0-19.27-16.82,110.69,110.69,0,0,0-9.23-6.25,60.59,60.59,0,0,0-11.13-5.42l-2.71-.82h0L607,311a8.79,8.79,0,0,0-.55,3.8l1.9,13.84A5.72,5.72,0,0,0,612.92,333.48Z" transform="translate(-0.07 -0.18)" fill="#0052cc"/><path d="M608.3,313.12a4.38,4.38,0,0,1-.54-3.26,23.38,23.38,0,0,0-4.07-6L601,302.26l4.88-6.78,6.52,2.71c-1.09,2.72-1.9,5.7-2.72,8.42l-.54,3.52Z" transform="translate(-0.07 -0.18)" fill="#72594b"/><path d="M609.66,405.4a10.59,10.59,0,0,1,4.62-3.8c3.52-1.36,5.42,0,9.22-1.9s4.07-1.9,4.07-3.53a2.44,2.44,0,0,0-1.08-2.17l7.87-5.7a15.5,15.5,0,0,1,3.53,7.33,30.66,30.66,0,0,1,1.63,9.77Z" transform="translate(-0.07 -0.18)" fill="#253858"/><path d="M605.86,295.75l-5.7,8.41a5.4,5.4,0,0,1-3.25,2.17h0a5.1,5.1,0,0,1-3.53-.54l-4.62-2.17L588,305h-1.09l-1.35-3.53-1.36-1.9a16.92,16.92,0,0,1-4.34-7.06h0a13.85,13.85,0,0,1,1.08-10.31h0a12.76,12.76,0,0,1,10-6h3.26a13.58,13.58,0,0,1,8.42,10.31v2.72Z" transform="translate(-0.07 -0.18)" fill="#72594b"/><path d="M568,360.35a7.9,7.9,0,0,1-5.43,4.34,12.79,12.79,0,0,1-4.62-.82,32.21,32.21,0,0,1-5.15-3L547.65,365H546a2.17,2.17,0,0,1-.27-1.9h0l4.61-4.61,1.36-.55,6-.54,8.69-.54Z" transform="translate(-0.07 -0.18)" fill="#72594b"/><path d="M548.74,362.79l-2.45,2.71a1.08,1.08,0,0,0,0,1.36h0a1.36,1.36,0,0,0,1.9.27l6.79-4.61h4.88l-2.17-3h-5.16Z" transform="translate(-0.07 -0.18)" fill="#72594b"/><path d="M548.46,369.57h1.63l3.26-3.8,6.24-3.25-1.63-1.9-6.51,3.25-3,4.07C547.92,368.49,548.19,369,548.46,369.57Z" transform="translate(-0.07 -0.18)" fill="#72594b"/><path d="M552.67,370.39a1.62,1.62,0,0,0,1.35-.55l1.9-3.52,3-2.45-1.36-1.62-4.34,3.25-1.09,3.8C551.85,369.57,552.12,370.12,552.67,370.39Z" transform="translate(-0.07 -0.18)" fill="#72594b"/><path d="M601.52,279.74c2.17,2.71.81,4.88,3.26,11.12a35.34,35.34,0,0,0,1.9,4.89,29.55,29.55,0,0,1-6.52-1.9l-3.25-2.71c-2.18-2.18-2.45-4.35-4.08-4.62h-1.08c-1.09,1.09,1.63,3.8.81,6s-4.88,2.17-6.78,2.17a7.6,7.6,0,0,1-6.24-1.35,5.41,5.41,0,0,1-1.09-5.7c.54-5.43,5.7-13,13-13A10.86,10.86,0,0,1,601.52,279.74Z" transform="translate(-0.07 -0.18)" fill="#172b4d"/><polygon points="911.13 94.18 843.55 87.94 778.14 106.94 845.99 113.18 911.13 94.18" fill="#b3f5ff"/><polygon points="778.14 106.94 784.65 175.33 852.5 181.57 845.99 113.18 778.14 106.94" fill="#00c7e5"/><polygon points="911.13 94.18 845.99 113.18 852.5 181.57 917.91 162.57 911.13 94.18" fill="#79e2f2"/><ellipse cx="780.31" cy="369.12" rx="76.27" ry="9.23" fill="#b3f5ff"/><path d="M847.15,173.89a18.89,18.89,0,0,1,2.71-3.8,11.44,11.44,0,0,1,6-3l2.72-1.63,3.52-.81a1.64,1.64,0,0,0,.82-1.63,1.36,1.36,0,0,0-1.36-.81l-14.65,1.62a4.07,4.07,0,0,1-4.35-2.44v-1.08A1.62,1.62,0,0,0,840.9,159h0c-.54,0-.81.54-1.08,1.36V163A23.07,23.07,0,0,0,842.26,175Z" transform="translate(-0.07 -0.18)" fill="#d4b696"/><path d="M762.74,241.74c-1.9,3.53-3.53,7.33-5.7,11.4a172.87,172.87,0,0,0-12.49,46.41,155.53,155.53,0,0,0-5.43,15.74,251.07,251.07,0,0,0-10,42.61l8.69,2.17c2.71-7.87,7.6-20.08,13.3-35.28s11.4-28.77,11.4-29.31c10.58-24.43,16-31.21,13.3-40.17C775,252.32,772,246.9,762.74,241.74Z" transform="translate(-0.07 -0.18)" fill="#0052cc"/><path d="M789.61,247.71l15.74,49.94,14.11,60.8-8.41,1.9c-4.89-12.22-9.77-25.25-14.39-38.54-2.44-7.06-4.88-13.85-6.78-20.63a67.84,67.84,0,0,0-11.4-16.29c-7.87-8.41-14.66-10.58-19.27-19.81S756.77,254,757,253.14l2.44-4.62a68.27,68.27,0,0,1,3-6.51A93.09,93.09,0,0,0,789.61,247.71Z" transform="translate(-0.07 -0.18)" fill="url(#fab0ffb4-9f19-4253-975c-a82a7a01bd1c)"/><path d="M817.83,346.5a28.55,28.55,0,0,0,2.18,9.77,24.67,24.67,0,0,0,9.77,12.49,21.41,21.41,0,0,0,9,3.53v1.35h-17.1a2.17,2.17,0,0,0-2.58-1.66l-.13,0a1.9,1.9,0,0,0-1.09,1.62h-4.34c-.54-1.9-.81-3.8-1.36-5.42a197,197,0,0,0-6.78-21.45Z" transform="translate(-0.07 -0.18)" fill="#344563"/><path d="M742.38,347.05a59,59,0,0,0-3,11.4,10.28,10.28,0,0,0,1.08,8.41,15.85,15.85,0,0,0,5.16,4.07l4.88,2.17v1.09H736.41c0-.55-.27-.82-.81-1.09H734l-.82,1.09a24.17,24.17,0,0,1-6.24-.27l.82-5.43a20.71,20.71,0,0,0,.81-5.7c1.09-6.52,2.44-14.12,2.71-16Z" transform="translate(-0.07 -0.18)" fill="#344563"/><path d="M776.85,136.43l3.53-4.07,1.09-10.31v-5.7h-3.53l-3.8,4.88a16.51,16.51,0,0,0-2.45,3.53h0a17.65,17.65,0,0,0-1.08,5.43v4.34Z" transform="translate(-0.07 -0.18)" fill="#d4b696"/><path d="M783.09,124.22,776.58,131l-2.44-4.07,7.6-4.88h1.62C783.64,122.86,783.64,124,783.09,124.22Z" transform="translate(-0.07 -0.18)" fill="#d4b696"/><path d="M804.53,208.9c-8.14-3-16.28-6.24-24.42-10l-1.36-.82v-.54a39.9,39.9,0,0,1-6-56.1,39.33,39.33,0,0,1,6-6.05l-8.68-3.8a51.79,51.79,0,0,0-16.56,32.57A57,57,0,0,0,761.65,198a81.33,81.33,0,0,0,8.69,12.76,55.9,55.9,0,0,1-8.42,32.3l29.59,9.5a14.12,14.12,0,0,1-1.09-11.4c1.9-4.89,7.6-5.7,9.5-11.4a11.36,11.36,0,0,0,.54-6,47,47,0,0,0,33.66-10.05c20.08-15.74,17.1-42.34,17.1-43.69l-10.86,2.44a58.27,58.27,0,0,1-1.9,16.83C833.3,203.74,817.29,212.7,804.53,208.9Z" transform="translate(-0.07 -0.18)" fill="#344563"/><path d="M800.19,183.11h-1.35l-3.26,1.09c-1.63,1.36-.54,4.07-2.44,7.33l-.82,3v1.36a34.35,34.35,0,0,1-3.53,8.69l1.63-.55,5.16-1.9c3.53-2.44,4.34-3,4.34-4.61v-5.43c1.36-1.09,2.72-1.09,1.63-2.71L800.19,188C799.92,188,799.11,186.1,800.19,183.11Z" transform="translate(-0.07 -0.18)" fill="#d4b696"/><path d="M795.85,184.47a58.73,58.73,0,0,1-3,20.63v.54a14.38,14.38,0,0,1-18.38,8.71l-.07,0L772,213.24l-.82-.54h0A9.77,9.77,0,0,1,769,199.4l.54-.82a41.23,41.23,0,0,0,5.7-7.87c3.26-7.05,2.72-11.94,7.6-14.65a20.1,20.1,0,0,1,9.77-1.63,11.06,11.06,0,0,1,5.16,1.36,10.24,10.24,0,0,1,2.71,3.25,13.29,13.29,0,0,1,1.36,4.35,12.42,12.42,0,0,0-5.7,1.35Z" transform="translate(-0.07 -0.18)" fill="#172b4d"/><path id="ec5dc299-29ef-48d9-ad07-947738e29dea" data-name=" Clipping Path 11" d="M310.57,533,319,587.52c.54,3.52,11.94,6,25.51,6s24.7-2.45,25.24-6L378.42,533Z" transform="translate(-0.07 -0.18)" fill="url(#f697ab4c-871c-427a-8825-ad8c053a1b28)"/><path d="M378.69,533.23c-.81,1.9-16.28,3.26-33.93,3.26s-33.11-1.36-33.92-3.26,14.11-4.07,33.92-4.07S379.51,531.06,378.69,533.23Z" transform="translate(-0.07 -0.18)" fill="#0049b0"/><path d="M321.42,504.19l-4.88.82,4.88,30.67h3v-13.3Z" transform="translate(-0.07 -0.18)" fill="#0065ff"/><path d="M327.94,502.84h-4.35l.55,19.54v13.3h4.61V527Z" transform="translate(-0.07 -0.18)" fill="#00a3bf"/><path d="M353.45,536.49h4.89L363,504.74l-4.34-1.09Z" transform="translate(-0.07 -0.18)" fill="#00a3bf"/><path d="M333.37,496.59h-4.62v39.63h4.62Z" transform="translate(-0.07 -0.18)" fill="#ff8b00"/><path d="M351.28,508h-4.89v28.5h4.89Z" transform="translate(-0.07 -0.18)" fill="#0065ff"/><polygon points="730.64 13.57 658.17 0 585.98 13.57 658.17 27.41 730.64 13.57" fill="#2684ff"/><path d="M612.38,298.19l-3.53,19.54-6.52,21.72a57.23,57.23,0,0,0-9.5,3.8c-7.6,3.25-10.31,6-18.18,9.5a53.79,53.79,0,0,1-9.23,3.25l3,5.16,20.9-6.24s12.48-2.72,19.54-9.77,11.13-17.92,13.3-25.24a58.61,58.61,0,0,0,1.63-6.52,13,13,0,0,0-10.5-15.14l-.36-.06Z" transform="translate(-0.07 -0.18)" fill="#0052cc"/></g></g></g></svg>